:SAMPLES-PER-SECOND 24
:FULLY-SPECIFIED
:DEGREES
430
root  1.29684 39.9477 43.1115 -39.4514 -4.40851 20.5481
RightUpLeg  6.84725 7.12969 -13.772
RightLeg  52.1087 2.68507 3.31298
RightFoot  10.4923 1.80945 -8.99003
RightToes  -2.08645e-008 3.77894e-005 6.81332e-007
Spine  36.0122 2.02007 1.54565
Spine1  12.8577 10.4586 -24.7943
HEad  -10.1022 -4.62092 2.33335
LeftShoulder1  5.02052 -10.5662 -29.663
LeftArm  -3.55202 19.1767 -28.5942
LeftForeArm  172.77 -47.7884 -169.008
LeftHand  -0.0212576 -4.13878 0.534385
RightShoulder  2.17956 5.45036 17.8016
RightArm  18.0115 29.2034 13.5367
RightForeArm  15.6094 35.7851 7.16067
RightHand  -0.627134 10.5975 -4.95038
LeftUpLeg  -79.8368 14.1895 18.9205
LeftLeg  9.1361 9.18761 4.46782
LeftFoot  -5.76888 0.52605 -10.1037
LeftToes  1.24767e-006 1.47042e-008 1.32732e-009
431
root  1.15217 40.2018 43.0637 -37.0137 -7.71878 19.6962
RightUpLeg  5.53788 6.58458 -11.8402
RightLeg  49.1075 3.56618 4.05373
RightFoot  9.54838 2.13789 -11.1953
RightToes  -2.08645e-008 3.77894e-005 6.81332e-007
Spine  33.6292 2.84121 2.50998
Spine1  13.0756 10.8376 -24.0518
HEad  -13.3567 -3.7316 3.37518
LeftShoulder1  5.32101 -10.9287 -30.865
LeftArm  -4.53674 16.4021 -26.9232
LeftForeArm  172.467 -50.2579 -168.032
LeftHand  0.0135775 -4.50977 0.128337
RightShoulder  2.42946 5.70353 20.0112
RightArm  19.7934 21.944 11.5615
RightForeArm  15.0246 33.6327 6.61695
RightHand  -0.610112 10.7083 -4.79841
LeftUpLeg  -69.5099 14.127 18.7083
LeftLeg  5.57694 6.20611 3.86942
LeftFoot  -3.6386 0.687124 -9.86679
LeftToes  1.24767e-006 1.47042e-008 1.32732e-009
432
root  1.07251 40.5614 43.1525 -34.9008 -11.3714 18.4644
RightUpLeg  5.00234 5.97622 -9.84978
RightLeg  45.5175 5.23935 5.36662
RightFoot  9.71957 2.41074 -12.5468
RightToes  -2.08645e-008 3.77894e-005 6.81332e-007
Spine  30.6633 2.93102 4.41324
Spine1  13.13 10.794 -23.4537
HEad  -15.7886 -1.86712 3.15377
LeftShoulder1  5.69699 -11.3648 -32.3194
LeftArm  -5.37295 16.4774 -24.8409
LeftForeArm  170.915 -51.7492 -167.294
LeftHand  -0.0161444 -4.23318 0.475694
RightShoulder  2.74604 5.9817 22.7508
RightArm  22.2889 14.6131 11.4371
RightForeArm  15.1389 31.0528 5.95291
RightHand  -0.632103 10.692 -4.96056
LeftUpLeg  -56.0656 14.2144 18.8393
LeftLeg  1.30692 5.41259 3.1012
LeftFoot  -2.17456 0.941569 -11.5647
LeftToes  1.24767e-006 1.47042e-008 1.32732e-009
433
root  1.03155 40.9065 43.383 -31.7805 -13.894 16.5472
RightUpLeg  4.07609 4.40013 -8.28966
RightLeg  42.1245 7.58719 6.99762
RightFoot  10.0256 2.51012 -12.8736
RightToes  -2.08645e-008 3.77894e-005 6.81332e-007
Spine  26.728 2.25346 5.66434
Spine1  12.5579 9.46107 -21.5111
HEad  -17.1687 1.04652 1.30322
LeftShoulder1  6.03956 -11.6994 -33.7255
LeftArm  -4.99858 19.883 -23.3476
LeftForeArm  170.104 -52.3502 -166.968
LeftHand  -0.0685609 -3.50031 1.1477
RightShoulder  3.10832 6.21052 25.9577
RightArm  23.929 5.89018 11.0868
RightForeArm  15.5786 31.3231 5.99622
RightHand  -0.640137 10.482 -5.07657
LeftUpLeg  -43.0976 13.3248 18.3426
LeftLeg  0.46155 11.6421 1.79111
LeftFoot  -1.71749 1.05256 -12.3499
LeftToes  1.24767e-006 1.47042e-008 1.32732e-009
434
root  0.986362 41.1267 43.8264 -26.8611 -14.7664 13.7151
RightUpLeg  1.74695 1.9826 -6.31085
RightLeg  39.6598 8.97402 7.61873
RightFoot  9.9612 2.50665 -12.8964
RightToes  -2.08645e-008 3.77894e-005 6.81332e-007
Spine  21.2068 1.36914 5.46195
Spine1  11.4193 6.75169 -16.5677
HEad  -18.5798 4.78124 -1.76664
LeftShoulder1  6.32602 -11.967 -34.8746
LeftArm  -3.8846 25.1207 -23.2029
LeftForeArm  169.6 -52.7988 -166.727
LeftHand  -0.0850677 -3.07808 1.3981
RightShoulder  3.43869 6.34151 28.9912
RightArm  24.2245 -5.02241 8.64524
RightForeArm  16.8355 34.4045 6.71622
RightHand  -0.597082 10.5811 -4.73794
LeftUpLeg  -33.3291 12.0421 15.6903
LeftLeg  5.62354 16.8861 2.21302
LeftFoot  -1.23463 1.08137 -12.1118
LeftToes  1.24767e-006 1.47042e-008 1.32732e-009
435
root  0.898525 41.1911 44.3302 -21.2144 -14.9704 10.7128
RightUpLeg  -1.58857 0.403657 -3.44668
RightLeg  37.9439 8.69004 6.93352
RightFoot  9.34028 2.46642 -13.0951
RightToes  -2.08645e-008 3.77894e-005 6.81332e-007
Spine  14.9078 0.339227 4.19335
Spine1  10.735 3.69201 -10.1874
HEad  -20.6112 9.04277 -5.24256
LeftShoulder1  6.62039 -12.3097 -35.83
LeftArm  -3.06717 29.3448 -23.5688
LeftForeArm  169.066 -53.3647 -166.423
LeftHand  -0.0555322 -3.21884 0.987059
RightShoulder  3.57835 6.32118 30.5183
RightArm  22.9166 -17.0388 5.57953
RightForeArm  18.9212 37.0204 7.30556
RightHand  -0.554223 10.4536 -4.45852
LeftUpLeg  -24.5419 11.3479 11.7407
LeftLeg  12.6946 14.2301 3.92455
LeftFoot  -2.07411 1.00657 -12.2315
LeftToes  1.24767e-006 1.47042e-008 1.32732e-009
